M48
; DRILL file KiCad 10.0.3 date 2026-05-17T18:27:40
; FORMAT={-:-/ absolute / inch / decimal}
; #@! TF.CreationDate,2026-05-17T18:27:40+10:00
; #@! TF.GenerationSoftware,Kicad,Pcbnew,10.0.3
; #@! TF.FileFunction,NonPlated,1,2,NPTH
FMAT,2
INCH
; #@! TA.AperFunction,NonPlated,NPTH,ComponentDrill
T1C0.0197
; #@! TA.AperFunction,NonPlated,NPTH,ComponentDrill
T2C0.0228
; #@! TA.AperFunction,NonPlated,NPTH,ComponentDrill
T3C0.0260
; #@! TA.AperFunction,NonPlated,NPTH,ComponentDrill
T4C0.1378
%
G90
G05
T1
X4.722Y-5.311
X4.722Y-5.3346
X4.75Y-5.311
X4.75Y-5.3346
X4.7776Y-5.3346
X4.778Y-5.311
X5.5094Y-5.311
X5.5094Y-5.3346
X5.5374Y-5.311
X5.5374Y-5.3346
X5.565Y-5.3346
X5.5654Y-5.311
X6.2969Y-5.311
X6.2969Y-5.3346
X6.3248Y-5.311
X6.3248Y-5.3346
X6.3524Y-5.3346
X6.3528Y-5.311
X8.6591Y-5.311
X8.6591Y-5.3346
X8.687Y-5.311
X8.687Y-5.3346
X8.7146Y-5.3346
X8.715Y-5.311
X9.4465Y-5.311
X9.4465Y-5.3346
X9.4744Y-5.311
X9.4744Y-5.3346
X9.502Y-5.3346
X9.5024Y-5.311
X10.2339Y-5.311
X10.2339Y-5.3346
X10.2618Y-5.311
X10.2618Y-5.3346
X10.2894Y-5.3346
X10.2898Y-5.311
X11.0213Y-5.311
X11.0213Y-5.3346
X11.0492Y-5.311
X11.0492Y-5.3346
X11.0768Y-5.3346
X11.0772Y-5.311
T3
X10.9947Y-7.7213
T4
X5.9634Y-7.6421
T2
G00X11.2817Y-7.7213
M15
G01X11.2982Y-7.7213
M16
G05
M30
