%TF.GenerationSoftware,KiCad,Pcbnew,10.0.3*%
%TF.CreationDate,2026-05-17T18:27:40+10:00*%
%TF.ProjectId,Nixie Clock,4e697869-6520-4436-9c6f-636b2e6b6963,rev?*%
%TF.SameCoordinates,Original*%
%TF.FileFunction,Paste,Top*%
%TF.FilePolarity,Positive*%
%FSLAX46Y46*%
G04 Gerber Fmt 4.6, Leading zero omitted, Abs format (unit mm)*
G04 Created by KiCad (PCBNEW 10.0.3) date 2026-05-17 18:27:40*
%MOMM*%
%LPD*%
G01*
G04 APERTURE LIST*
G04 Aperture macros list*
%AMRoundRect*
0 Rectangle with rounded corners*
0 $1 Rounding radius*
0 $2 $3 $4 $5 $6 $7 $8 $9 X,Y pos of 4 corners*
0 Add a 4 corners polygon primitive as box body*
4,1,4,$2,$3,$4,$5,$6,$7,$8,$9,$2,$3,0*
0 Add four circle primitives for the rounded corners*
1,1,$1+$1,$2,$3*
1,1,$1+$1,$4,$5*
1,1,$1+$1,$6,$7*
1,1,$1+$1,$8,$9*
0 Add four rect primitives between the rounded corners*
20,1,$1+$1,$2,$3,$4,$5,0*
20,1,$1+$1,$4,$5,$6,$7,0*
20,1,$1+$1,$6,$7,$8,$9,0*
20,1,$1+$1,$8,$9,$2,$3,0*%
G04 Aperture macros list end*
%ADD10C,0.010000*%
%ADD11RoundRect,0.200000X-0.275000X0.200000X-0.275000X-0.200000X0.275000X-0.200000X0.275000X0.200000X0*%
%ADD12RoundRect,0.225000X-0.225000X-0.250000X0.225000X-0.250000X0.225000X0.250000X-0.225000X0.250000X0*%
%ADD13R,1.500000X0.900000*%
%ADD14R,0.900000X1.500000*%
%ADD15R,0.900000X0.900000*%
%ADD16RoundRect,0.150000X-0.587500X-0.150000X0.587500X-0.150000X0.587500X0.150000X-0.587500X0.150000X0*%
%ADD17RoundRect,0.150000X0.587500X0.150000X-0.587500X0.150000X-0.587500X-0.150000X0.587500X-0.150000X0*%
%ADD18RoundRect,0.200000X0.200000X0.275000X-0.200000X0.275000X-0.200000X-0.275000X0.200000X-0.275000X0*%
%ADD19RoundRect,0.225000X-0.250000X0.225000X-0.250000X-0.225000X0.250000X-0.225000X0.250000X0.225000X0*%
%ADD20RoundRect,0.200000X-0.200000X-0.275000X0.200000X-0.275000X0.200000X0.275000X-0.200000X0.275000X0*%
%ADD21R,3.600000X2.600000*%
%ADD22RoundRect,0.090000X-0.660000X-0.360000X0.660000X-0.360000X0.660000X0.360000X-0.660000X0.360000X0*%
%ADD23RoundRect,0.250000X0.600000X-0.400000X0.600000X0.400000X-0.600000X0.400000X-0.600000X-0.400000X0*%
%ADD24RoundRect,0.225000X0.250000X-0.225000X0.250000X0.225000X-0.250000X0.225000X-0.250000X-0.225000X0*%
%ADD25RoundRect,0.200000X0.275000X-0.200000X0.275000X0.200000X-0.275000X0.200000X-0.275000X-0.200000X0*%
%ADD26RoundRect,0.250000X-1.950000X-1.000000X1.950000X-1.000000X1.950000X1.000000X-1.950000X1.000000X0*%
%ADD27RoundRect,0.225000X0.225000X0.250000X-0.225000X0.250000X-0.225000X-0.250000X0.225000X-0.250000X0*%
%ADD28RoundRect,0.079500X-0.079500X-0.100500X0.079500X-0.100500X0.079500X0.100500X-0.079500X0.100500X0*%
%ADD29RoundRect,0.075000X0.075000X0.200000X-0.075000X0.200000X-0.075000X-0.200000X0.075000X-0.200000X0*%
%ADD30R,0.812800X0.304800*%
%ADD31R,0.304800X0.812800*%
%ADD32R,2.159000X2.159000*%
%ADD33RoundRect,0.375000X-0.625000X-0.375000X0.625000X-0.375000X0.625000X0.375000X-0.625000X0.375000X0*%
%ADD34RoundRect,0.500000X-0.500000X-1.400000X0.500000X-1.400000X0.500000X1.400000X-0.500000X1.400000X0*%
%ADD35RoundRect,0.250000X1.000000X0.900000X-1.000000X0.900000X-1.000000X-0.900000X1.000000X-0.900000X0*%
%ADD36RoundRect,0.225000X0.225000X-0.225000X0.225000X0.225000X-0.225000X0.225000X-0.225000X-0.225000X0*%
%ADD37RoundRect,0.062500X0.062500X-0.337500X0.062500X0.337500X-0.062500X0.337500X-0.062500X-0.337500X0*%
%ADD38RoundRect,0.062500X0.337500X-0.062500X0.337500X0.062500X-0.337500X0.062500X-0.337500X-0.062500X0*%
%ADD39RoundRect,0.250000X-0.250000X-0.550000X0.250000X-0.550000X0.250000X0.550000X-0.250000X0.550000X0*%
%ADD40RoundRect,0.200000X0.800000X-0.200000X0.800000X0.200000X-0.800000X0.200000X-0.800000X-0.200000X0*%
%ADD41R,1.070000X2.160000*%
%ADD42RoundRect,0.150000X-0.512500X-0.150000X0.512500X-0.150000X0.512500X0.150000X-0.512500X0.150000X0*%
%ADD43RoundRect,0.250000X-0.550000X1.500000X-0.550000X-1.500000X0.550000X-1.500000X0.550000X1.500000X0*%
%ADD44RoundRect,0.250000X-1.750000X-1.000000X1.750000X-1.000000X1.750000X1.000000X-1.750000X1.000000X0*%
%ADD45RoundRect,0.225000X-0.325000X-0.225000X0.325000X-0.225000X0.325000X0.225000X-0.325000X0.225000X0*%
%ADD46R,5.400000X2.900000*%
%ADD47RoundRect,0.125000X-0.125000X0.125000X-0.125000X-0.125000X0.125000X-0.125000X0.125000X0.125000X0*%
%ADD48RoundRect,0.100000X0.100000X-0.637500X0.100000X0.637500X-0.100000X0.637500X-0.100000X-0.637500X0*%
%ADD49RoundRect,0.250000X1.000000X-1.950000X1.000000X1.950000X-1.000000X1.950000X-1.000000X-1.950000X0*%
%ADD50RoundRect,0.150000X-0.150000X0.875000X-0.150000X-0.875000X0.150000X-0.875000X0.150000X0.875000X0*%
%ADD51R,1.397000X0.558800*%
%ADD52RoundRect,0.250000X-0.320000X0.320000X-0.320000X-0.320000X0.320000X-0.320000X0.320000X0.320000X0*%
%ADD53RoundRect,0.075000X-0.075000X0.437500X-0.075000X-0.437500X0.075000X-0.437500X0.075000X0.437500X0*%
%ADD54RoundRect,0.075000X-0.437500X0.075000X-0.437500X-0.075000X0.437500X-0.075000X0.437500X0.075000X0*%
%ADD55R,2.900000X5.400000*%
%ADD56R,0.700000X1.200000*%
%ADD57R,1.000000X0.800000*%
%ADD58R,1.000000X1.200000*%
%ADD59R,1.000000X2.800000*%
%ADD60R,1.300000X1.900000*%
%ADD61RoundRect,0.250000X-0.325000X-0.650000X0.325000X-0.650000X0.325000X0.650000X-0.325000X0.650000X0*%
%ADD62RoundRect,0.150000X-0.150000X0.725000X-0.150000X-0.725000X0.150000X-0.725000X0.150000X0.725000X0*%
G04 APERTURE END LIST*
D10*
%TO.C,VR1*%
X140895500Y-178067500D02*
X140895500Y-178917500D01*
X139675500Y-178917500D01*
X139675500Y-178067500D01*
X140895500Y-178067500D01*
G36*
X140895500Y-178917500D02*
G01*
X139675500Y-178917500D01*
X139675500Y-178067500D01*
X140895500Y-178067500D01*
X140895500Y-178917500D01*
G37*
X142245500Y-178067500D02*
X142245500Y-178917500D01*
X141025500Y-178917500D01*
X141025500Y-178067500D01*
X142245500Y-178067500D01*
G36*
X142245500Y-178917500D02*
G01*
X141025500Y-178917500D01*
X141025500Y-178067500D01*
X142245500Y-178067500D01*
X142245500Y-178917500D01*
G37*
X142645500Y-173027500D02*
X142645500Y-174427500D01*
X141135500Y-174427500D01*
X141135500Y-173027500D01*
X142645500Y-173027500D01*
G36*
X142645500Y-174427500D02*
G01*
X141135500Y-174427500D01*
X141135500Y-173027500D01*
X142645500Y-173027500D01*
X142645500Y-174427500D01*
G37*
X142645500Y-175567500D02*
X142645500Y-176967500D01*
X141135500Y-176967500D01*
X141135500Y-175567500D01*
X142645500Y-175567500D01*
G36*
X142645500Y-176967500D02*
G01*
X141135500Y-176967500D01*
X141135500Y-175567500D01*
X142645500Y-175567500D01*
X142645500Y-176967500D01*
G37*
X143595500Y-178067500D02*
X143595500Y-178917500D01*
X142375500Y-178917500D01*
X142375500Y-178067500D01*
X143595500Y-178067500D01*
G36*
X143595500Y-178917500D02*
G01*
X142375500Y-178917500D01*
X142375500Y-178067500D01*
X143595500Y-178067500D01*
X143595500Y-178917500D01*
G37*
X144725500Y-173027500D02*
X144725500Y-174427500D01*
X143215500Y-174427500D01*
X143215500Y-173027500D01*
X144725500Y-173027500D01*
G36*
X144725500Y-174427500D02*
G01*
X143215500Y-174427500D01*
X143215500Y-173027500D01*
X144725500Y-173027500D01*
X144725500Y-174427500D01*
G37*
X144725500Y-175567500D02*
X144725500Y-176967500D01*
X143215500Y-176967500D01*
X143215500Y-175567500D01*
X144725500Y-175567500D01*
G36*
X144725500Y-176967500D02*
G01*
X143215500Y-176967500D01*
X143215500Y-175567500D01*
X144725500Y-175567500D01*
X144725500Y-176967500D01*
G37*
X144945500Y-178067500D02*
X144945500Y-178917500D01*
X143725500Y-178917500D01*
X143725500Y-178067500D01*
X144945500Y-178067500D01*
G36*
X144945500Y-178917500D02*
G01*
X143725500Y-178917500D01*
X143725500Y-178067500D01*
X144945500Y-178067500D01*
X144945500Y-178917500D01*
G37*
X146295500Y-178067500D02*
X146295500Y-178917500D01*
X145075500Y-178917500D01*
X145075500Y-178067500D01*
X146295500Y-178067500D01*
G36*
X146295500Y-178917500D02*
G01*
X145075500Y-178917500D01*
X145075500Y-178067500D01*
X146295500Y-178067500D01*
X146295500Y-178917500D01*
G37*
X146805500Y-173027500D02*
X146805500Y-174427500D01*
X145295500Y-174427500D01*
X145295500Y-173027500D01*
X146805500Y-173027500D01*
G36*
X146805500Y-174427500D02*
G01*
X145295500Y-174427500D01*
X145295500Y-173027500D01*
X146805500Y-173027500D01*
X146805500Y-174427500D01*
G37*
X146805500Y-175567500D02*
X146805500Y-176967500D01*
X145295500Y-176967500D01*
X145295500Y-175567500D01*
X146805500Y-175567500D01*
G36*
X146805500Y-176967500D02*
G01*
X145295500Y-176967500D01*
X145295500Y-175567500D01*
X146805500Y-175567500D01*
X146805500Y-176967500D01*
G37*
X147645500Y-178067500D02*
X147645500Y-178917500D01*
X146425500Y-178917500D01*
X146425500Y-178067500D01*
X147645500Y-178067500D01*
G36*
X147645500Y-178917500D02*
G01*
X146425500Y-178917500D01*
X146425500Y-178067500D01*
X147645500Y-178067500D01*
X147645500Y-178917500D01*
G37*
X148885500Y-173027500D02*
X148885500Y-174427500D01*
X147375500Y-174427500D01*
X147375500Y-173027500D01*
X148885500Y-173027500D01*
G36*
X148885500Y-174427500D02*
G01*
X147375500Y-174427500D01*
X147375500Y-173027500D01*
X148885500Y-173027500D01*
X148885500Y-174427500D01*
G37*
X148885500Y-175567500D02*
X148885500Y-176967500D01*
X147375500Y-176967500D01*
X147375500Y-175567500D01*
X148885500Y-175567500D01*
G36*
X148885500Y-176967500D02*
G01*
X147375500Y-176967500D01*
X147375500Y-175567500D01*
X148885500Y-175567500D01*
X148885500Y-176967500D01*
G37*
X148995500Y-178067500D02*
X148995500Y-178917500D01*
X147775500Y-178917500D01*
X147775500Y-178067500D01*
X148995500Y-178067500D01*
G36*
X148995500Y-178917500D02*
G01*
X147775500Y-178917500D01*
X147775500Y-178067500D01*
X148995500Y-178067500D01*
X148995500Y-178917500D01*
G37*
X150345500Y-178067500D02*
X150345500Y-178917500D01*
X149125500Y-178917500D01*
X149125500Y-178067500D01*
X150345500Y-178067500D01*
G36*
X150345500Y-178917500D02*
G01*
X149125500Y-178917500D01*
X149125500Y-178067500D01*
X150345500Y-178067500D01*
X150345500Y-178917500D01*
G37*
%TD*%
D11*
%TO.C,R10*%
X276290000Y-177147156D03*
X276290000Y-178797156D03*
%TD*%
D12*
%TO.C,C3*%
X212820000Y-143030000D03*
X214370000Y-143030000D03*
%TD*%
D13*
%TO.C,U2*%
X217535000Y-143350000D03*
X217535000Y-144620000D03*
X217535000Y-145890000D03*
X217535000Y-147160000D03*
X217535000Y-148430000D03*
X217535000Y-149700000D03*
X217535000Y-150970000D03*
X217535000Y-152240000D03*
X217535000Y-153510000D03*
X217535000Y-154780000D03*
X217535000Y-156050000D03*
X217535000Y-157320000D03*
X217535000Y-158590000D03*
X217535000Y-159860000D03*
D14*
X220575000Y-161110000D03*
X221845000Y-161110000D03*
X223115000Y-161110000D03*
X224385000Y-161110000D03*
X225655000Y-161110000D03*
X226925000Y-161110000D03*
X228195000Y-161110000D03*
X229465000Y-161110000D03*
X230735000Y-161110000D03*
X232005000Y-161110000D03*
D13*
X235035000Y-159860000D03*
X235035000Y-158590000D03*
X235035000Y-157320000D03*
X235035000Y-156050000D03*
X235035000Y-154780000D03*
X235035000Y-153510000D03*
X235035000Y-152240000D03*
X235035000Y-150970000D03*
X235035000Y-149700000D03*
X235035000Y-148430000D03*
X235035000Y-147160000D03*
X235035000Y-145890000D03*
X235035000Y-144620000D03*
X235035000Y-143350000D03*
D15*
X223385000Y-149670000D03*
X223385000Y-151070000D03*
X223385000Y-152470000D03*
X224785000Y-149670000D03*
X224785000Y-151070000D03*
X224785000Y-152470000D03*
X226185000Y-149670000D03*
X226185000Y-151070000D03*
X226185000Y-152470000D03*
%TD*%
D11*
%TO.C,R47*%
X149600000Y-105975000D03*
X149600000Y-107625000D03*
%TD*%
D16*
%TO.C,Q5*%
X137987500Y-102750000D03*
X137987500Y-104650000D03*
X139862500Y-103700000D03*
%TD*%
D17*
%TO.C,Q2*%
X274545000Y-173012156D03*
X274545000Y-171112156D03*
X272670000Y-172062156D03*
%TD*%
D18*
%TO.C,R40*%
X176540000Y-197410000D03*
X174890000Y-197410000D03*
%TD*%
D12*
%TO.C,C14*%
X183865000Y-193905000D03*
X185415000Y-193905000D03*
%TD*%
D19*
%TO.C,C35*%
X185565000Y-183445000D03*
X185565000Y-184995000D03*
%TD*%
D11*
%TO.C,R28*%
X168145000Y-167045000D03*
X168145000Y-168695000D03*
%TD*%
D20*
%TO.C,R44*%
X130975000Y-104800000D03*
X132625000Y-104800000D03*
%TD*%
D21*
%TO.C,BT1*%
X190285000Y-139290000D03*
X190285000Y-168590000D03*
%TD*%
D16*
%TO.C,Q4*%
X127762500Y-105850000D03*
X127762500Y-107750000D03*
X129637500Y-106800000D03*
%TD*%
D22*
%TO.C,D14*%
X190175000Y-83750000D03*
X190175000Y-87050000D03*
X195075000Y-87050000D03*
X195075000Y-83750000D03*
%TD*%
D20*
%TO.C,R27*%
X266270000Y-119350000D03*
X267920000Y-119350000D03*
%TD*%
D23*
%TO.C,D8*%
X141826000Y-115730500D03*
X141826000Y-112230500D03*
%TD*%
D19*
%TO.C,C11*%
X271090000Y-154465000D03*
X271090000Y-156015000D03*
%TD*%
D22*
%TO.C,D13*%
X155175000Y-83750000D03*
X155175000Y-87050000D03*
X160075000Y-87050000D03*
X160075000Y-83750000D03*
%TD*%
D12*
%TO.C,C34*%
X191415000Y-181970000D03*
X192965000Y-181970000D03*
%TD*%
D18*
%TO.C,R35*%
X283920000Y-200100000D03*
X282270000Y-200100000D03*
%TD*%
D23*
%TO.C,D5*%
X151846000Y-115730500D03*
X151846000Y-112230500D03*
%TD*%
D24*
%TO.C,C53*%
X116510500Y-177710000D03*
X116510500Y-176160000D03*
%TD*%
D18*
%TO.C,R72*%
X240350000Y-82350000D03*
X238700000Y-82350000D03*
%TD*%
D25*
%TO.C,R24*%
X189990000Y-185020000D03*
X189990000Y-183370000D03*
%TD*%
D26*
%TO.C,C48*%
X169090000Y-178370000D03*
X176490000Y-178370000D03*
%TD*%
D20*
%TO.C,R7*%
X277665000Y-174282156D03*
X279315000Y-174282156D03*
%TD*%
D19*
%TO.C,C39*%
X189990000Y-186420000D03*
X189990000Y-187970000D03*
%TD*%
D16*
%TO.C,Q15*%
X282987500Y-102750000D03*
X282987500Y-104650000D03*
X284862500Y-103700000D03*
%TD*%
D24*
%TO.C,C31*%
X183790000Y-171295000D03*
X183790000Y-169745000D03*
%TD*%
D27*
%TO.C,C18*%
X196415000Y-193945000D03*
X194865000Y-193945000D03*
%TD*%
D23*
%TO.C,D10*%
X161866000Y-115730500D03*
X161866000Y-112230500D03*
%TD*%
D25*
%TO.C,R57*%
X220500000Y-106325000D03*
X220500000Y-104675000D03*
%TD*%
D20*
%TO.C,R26*%
X241305000Y-119540000D03*
X242955000Y-119540000D03*
%TD*%
D16*
%TO.C,Q8*%
X187762500Y-105850000D03*
X187762500Y-107750000D03*
X189637500Y-106800000D03*
%TD*%
D12*
%TO.C,C9*%
X243082500Y-145860000D03*
X244632500Y-145860000D03*
%TD*%
D25*
%TO.C,R53*%
X195500000Y-106325000D03*
X195500000Y-104675000D03*
%TD*%
D19*
%TO.C,C43*%
X133680000Y-195455000D03*
X133680000Y-197005000D03*
%TD*%
D25*
%TO.C,R19*%
X247920700Y-205945000D03*
X247920700Y-204295000D03*
%TD*%
D28*
%TO.C,D21*%
X153865000Y-168235000D03*
X154555000Y-168235000D03*
%TD*%
D25*
%TO.C,R71*%
X231025000Y-81325000D03*
X231025000Y-79675000D03*
%TD*%
D18*
%TO.C,R74*%
X240350000Y-92350000D03*
X238700000Y-92350000D03*
%TD*%
D23*
%TO.C,D11*%
X158526000Y-115730500D03*
X158526000Y-112230500D03*
%TD*%
D27*
%TO.C,C22*%
X249470700Y-202870000D03*
X247920700Y-202870000D03*
%TD*%
D12*
%TO.C,C21*%
X185390000Y-197495000D03*
X186940000Y-197495000D03*
%TD*%
D29*
%TO.C,U10*%
X290775000Y-193470000D03*
X290275000Y-193470000D03*
X289775000Y-193470000D03*
X289275000Y-193470000D03*
X288775000Y-193470000D03*
X288775000Y-194240000D03*
X289275000Y-194240000D03*
X289775000Y-194240000D03*
X290275000Y-194240000D03*
X290775000Y-194240000D03*
%TD*%
D30*
%TO.C,U7*%
X188158800Y-194004400D03*
X188158800Y-194487000D03*
X188158800Y-194995000D03*
X188158800Y-195503000D03*
X188158800Y-195985600D03*
D31*
X189149400Y-196976200D03*
X189632000Y-196976200D03*
X190140000Y-196976200D03*
X190648000Y-196976200D03*
X191130600Y-196976200D03*
D30*
X192121200Y-195985600D03*
X192121200Y-195503000D03*
X192121200Y-194995000D03*
X192121200Y-194487000D03*
X192121200Y-194004400D03*
D31*
X191130600Y-193013800D03*
X190648000Y-193013800D03*
X190140000Y-193013800D03*
X189632000Y-193013800D03*
X189149400Y-193013800D03*
D32*
X190140000Y-194995000D03*
%TD*%
D33*
%TO.C,U12*%
X158210000Y-166385000D03*
X158210000Y-168685000D03*
D34*
X164510000Y-168685000D03*
D33*
X158210000Y-170985000D03*
%TD*%
D12*
%TO.C,C37*%
X191415000Y-180470000D03*
X192965000Y-180470000D03*
%TD*%
D27*
%TO.C,C15*%
X194915000Y-195995000D03*
X193365000Y-195995000D03*
%TD*%
D23*
%TO.C,D7*%
X145166000Y-115730500D03*
X145166000Y-112230500D03*
%TD*%
D27*
%TO.C,C47*%
X150035500Y-161710000D03*
X148485500Y-161710000D03*
%TD*%
D35*
%TO.C,D22*%
X171510000Y-185160000D03*
X167210000Y-185160000D03*
%TD*%
D36*
%TO.C,U3*%
X283160000Y-175739656D03*
X284280000Y-175739656D03*
X285400000Y-175739656D03*
X283160000Y-174619656D03*
X284280000Y-174619656D03*
X285400000Y-174619656D03*
X283160000Y-173499656D03*
X284280000Y-173499656D03*
X285400000Y-173499656D03*
D37*
X282780000Y-177069656D03*
X283280000Y-177069656D03*
X283780000Y-177069656D03*
X284280000Y-177069656D03*
X284780000Y-177069656D03*
X285280000Y-177069656D03*
X285780000Y-177069656D03*
D38*
X286730000Y-176119656D03*
X286730000Y-175619656D03*
X286730000Y-175119656D03*
X286730000Y-174619656D03*
X286730000Y-174119656D03*
X286730000Y-173619656D03*
X286730000Y-173119656D03*
D37*
X285780000Y-172169656D03*
X285280000Y-172169656D03*
X284780000Y-172169656D03*
X284280000Y-172169656D03*
X283780000Y-172169656D03*
X283280000Y-172169656D03*
X282780000Y-172169656D03*
D38*
X281830000Y-173119656D03*
X281830000Y-173619656D03*
X281830000Y-174119656D03*
X281830000Y-174619656D03*
X281830000Y-175119656D03*
X281830000Y-175619656D03*
X281830000Y-176119656D03*
%TD*%
D39*
%TO.C,SW3*%
X241810700Y-191995000D03*
X243560700Y-189695000D03*
X245310700Y-191995000D03*
%TD*%
D24*
%TO.C,C38*%
X185290000Y-171295000D03*
X185290000Y-169745000D03*
%TD*%
D20*
%TO.C,R64*%
X275975000Y-104800000D03*
X277625000Y-104800000D03*
%TD*%
D23*
%TO.C,D1*%
X155186000Y-115730500D03*
X155186000Y-112230500D03*
%TD*%
%TO.C,D4*%
X148506000Y-115730500D03*
X148506000Y-112230500D03*
%TD*%
D25*
%TO.C,R73*%
X231025000Y-91325000D03*
X231025000Y-89675000D03*
%TD*%
D12*
%TO.C,C25*%
X154850000Y-81800000D03*
X156400000Y-81800000D03*
%TD*%
D25*
%TO.C,R67*%
X171025000Y-81325000D03*
X171025000Y-79675000D03*
%TD*%
D40*
%TO.C,SW1*%
X267780000Y-174402156D03*
X267780000Y-170202156D03*
%TD*%
D25*
%TO.C,R45*%
X135500000Y-106325000D03*
X135500000Y-104675000D03*
%TD*%
D12*
%TO.C,C26*%
X189850000Y-81800000D03*
X191400000Y-81800000D03*
%TD*%
D19*
%TO.C,C5*%
X285750000Y-178417156D03*
X285750000Y-179967156D03*
%TD*%
D11*
%TO.C,R11*%
X276280000Y-171242156D03*
X276280000Y-172892156D03*
%TD*%
D12*
%TO.C,C24*%
X129850000Y-81800000D03*
X131400000Y-81800000D03*
%TD*%
D41*
%TO.C,VR1*%
X148410500Y-165277500D03*
X146710500Y-165277500D03*
X145010500Y-165277500D03*
X143310500Y-165277500D03*
X141610500Y-165277500D03*
%TD*%
D20*
%TO.C,R56*%
X215975000Y-104800000D03*
X217625000Y-104800000D03*
%TD*%
D25*
%TO.C,R41*%
X125010500Y-166685000D03*
X125010500Y-165035000D03*
%TD*%
D12*
%TO.C,C4*%
X212815000Y-144490000D03*
X214365000Y-144490000D03*
%TD*%
D11*
%TO.C,R29*%
X171055000Y-167035000D03*
X171055000Y-168685000D03*
%TD*%
D25*
%TO.C,R49*%
X160500000Y-106325000D03*
X160500000Y-104675000D03*
%TD*%
D20*
%TO.C,R60*%
X250975000Y-104800000D03*
X252625000Y-104800000D03*
%TD*%
D16*
%TO.C,Q9*%
X197987500Y-102750000D03*
X197987500Y-104650000D03*
X199862500Y-103700000D03*
%TD*%
D23*
%TO.C,D9*%
X165206000Y-115730500D03*
X165206000Y-112230500D03*
%TD*%
D42*
%TO.C,U5*%
X126815502Y-116490000D03*
X126815502Y-117440000D03*
X126815502Y-118390000D03*
X129090502Y-118390000D03*
X129090502Y-116490000D03*
%TD*%
D25*
%TO.C,R42*%
X125010500Y-163685000D03*
X125010500Y-162035000D03*
%TD*%
D20*
%TO.C,R31*%
X241295000Y-113655000D03*
X242945000Y-113655000D03*
%TD*%
%TO.C,R50*%
X162600000Y-99800000D03*
X164250000Y-99800000D03*
%TD*%
D12*
%TO.C,C36*%
X182540000Y-183470000D03*
X184090000Y-183470000D03*
%TD*%
D24*
%TO.C,C49*%
X155760000Y-168010000D03*
X155760000Y-166460000D03*
%TD*%
D43*
%TO.C,C42*%
X137960000Y-191460000D03*
X137960000Y-196860000D03*
%TD*%
D18*
%TO.C,R70*%
X180350000Y-92350000D03*
X178700000Y-92350000D03*
%TD*%
D44*
%TO.C,C45*%
X141360500Y-155560000D03*
X149360500Y-155560000D03*
%TD*%
D45*
%TO.C,Y1*%
X234320700Y-200095000D03*
X236020700Y-200095000D03*
X236020700Y-198795000D03*
X234320700Y-198795000D03*
%TD*%
D11*
%TO.C,R59*%
X244600000Y-105975000D03*
X244600000Y-107625000D03*
%TD*%
D18*
%TO.C,R8*%
X290245000Y-174922156D03*
X288595000Y-174922156D03*
%TD*%
D12*
%TO.C,C29*%
X249850000Y-81800000D03*
X251400000Y-81800000D03*
%TD*%
D25*
%TO.C,R65*%
X280500000Y-106325000D03*
X280500000Y-104675000D03*
%TD*%
%TO.C,R13*%
X266710000Y-156065000D03*
X266710000Y-154415000D03*
%TD*%
D11*
%TO.C,R63*%
X269600000Y-105975000D03*
X269600000Y-107625000D03*
%TD*%
D16*
%TO.C,Q11*%
X222987500Y-102750000D03*
X222987500Y-104650000D03*
X224862500Y-103700000D03*
%TD*%
D12*
%TO.C,C28*%
X237695700Y-200195000D03*
X239245700Y-200195000D03*
%TD*%
D16*
%TO.C,Q6*%
X152762500Y-105850000D03*
X152762500Y-107750000D03*
X154637500Y-106800000D03*
%TD*%
D46*
%TO.C,L2*%
X132510500Y-155960000D03*
X132510500Y-165860000D03*
%TD*%
D20*
%TO.C,R6*%
X277665000Y-175752156D03*
X279315000Y-175752156D03*
%TD*%
D27*
%TO.C,C30*%
X183215000Y-179070000D03*
X181665000Y-179070000D03*
%TD*%
D24*
%TO.C,C46*%
X155760000Y-170985000D03*
X155760000Y-169435000D03*
%TD*%
%TO.C,C40*%
X188490000Y-187970000D03*
X188490000Y-186420000D03*
%TD*%
D12*
%TO.C,C19*%
X247945700Y-193845000D03*
X249495700Y-193845000D03*
%TD*%
D27*
%TO.C,C20*%
X194915000Y-197495000D03*
X193365000Y-197495000D03*
%TD*%
D22*
%TO.C,D12*%
X130175000Y-83750000D03*
X130175000Y-87050000D03*
X135075000Y-87050000D03*
X135075000Y-83750000D03*
%TD*%
D24*
%TO.C,C8*%
X270220000Y-178587156D03*
X270220000Y-177037156D03*
%TD*%
D18*
%TO.C,R22*%
X239295700Y-202795000D03*
X237645700Y-202795000D03*
%TD*%
D11*
%TO.C,R51*%
X184600000Y-105975000D03*
X184600000Y-107625000D03*
%TD*%
D22*
%TO.C,D17*%
X275175000Y-83750000D03*
X275175000Y-87050000D03*
X280075000Y-87050000D03*
X280075000Y-83750000D03*
%TD*%
D12*
%TO.C,C44*%
X143005000Y-198620000D03*
X144555000Y-198620000D03*
%TD*%
D47*
%TO.C,D19*%
X171275000Y-163632500D03*
X171275000Y-165832500D03*
%TD*%
D19*
%TO.C,C10*%
X272550000Y-154460000D03*
X272550000Y-156010000D03*
%TD*%
D16*
%TO.C,Q7*%
X162987500Y-102750000D03*
X162987500Y-104650000D03*
X164862500Y-103700000D03*
%TD*%
D20*
%TO.C,R9*%
X288595000Y-173462156D03*
X290245000Y-173462156D03*
%TD*%
D18*
%TO.C,R25*%
X172650000Y-150460000D03*
X171000000Y-150460000D03*
%TD*%
D20*
%TO.C,R52*%
X190975000Y-104800000D03*
X192625000Y-104800000D03*
%TD*%
%TO.C,R32*%
X266270000Y-116460000D03*
X267920000Y-116460000D03*
%TD*%
D25*
%TO.C,R36*%
X154260000Y-171060000D03*
X154260000Y-169410000D03*
%TD*%
D12*
%TO.C,C2*%
X180070000Y-110510000D03*
X181620000Y-110510000D03*
%TD*%
D11*
%TO.C,R43*%
X124600000Y-105975000D03*
X124600000Y-107625000D03*
%TD*%
D12*
%TO.C,C27*%
X214850000Y-81800000D03*
X216400000Y-81800000D03*
%TD*%
D20*
%TO.C,R58*%
X222600000Y-99800000D03*
X224250000Y-99800000D03*
%TD*%
%TO.C,R2*%
X236700000Y-145910000D03*
X238350000Y-145910000D03*
%TD*%
D11*
%TO.C,R5*%
X288670000Y-176312156D03*
X288670000Y-177962156D03*
%TD*%
D20*
%TO.C,R3*%
X236690000Y-149720000D03*
X238340000Y-149720000D03*
%TD*%
D25*
%TO.C,R17*%
X275470000Y-156055000D03*
X275470000Y-154405000D03*
%TD*%
D20*
%TO.C,R48*%
X155975000Y-104800000D03*
X157625000Y-104800000D03*
%TD*%
%TO.C,R46*%
X137600000Y-99800000D03*
X139250000Y-99800000D03*
%TD*%
D48*
%TO.C,U8*%
X184375000Y-178742500D03*
X185025000Y-178742500D03*
X185675000Y-178742500D03*
X186325000Y-178742500D03*
X186975000Y-178742500D03*
X187625000Y-178742500D03*
X188275000Y-178742500D03*
X188925000Y-178742500D03*
X189575000Y-178742500D03*
X190225000Y-178742500D03*
X190225000Y-173017500D03*
X189575000Y-173017500D03*
X188925000Y-173017500D03*
X188275000Y-173017500D03*
X187625000Y-173017500D03*
X186975000Y-173017500D03*
X186325000Y-173017500D03*
X185675000Y-173017500D03*
X185025000Y-173017500D03*
X184375000Y-173017500D03*
%TD*%
D24*
%TO.C,C32*%
X232690700Y-200220000D03*
X232690700Y-198670000D03*
%TD*%
D18*
%TO.C,R37*%
X147575000Y-198620000D03*
X145925000Y-198620000D03*
%TD*%
D25*
%TO.C,R16*%
X274010000Y-156055000D03*
X274010000Y-154405000D03*
%TD*%
%TO.C,R15*%
X269630000Y-156065000D03*
X269630000Y-154415000D03*
%TD*%
D20*
%TO.C,R39*%
X174890000Y-185910000D03*
X176540000Y-185910000D03*
%TD*%
D16*
%TO.C,Q14*%
X272762500Y-105850000D03*
X272762500Y-107750000D03*
X274637500Y-106800000D03*
%TD*%
D17*
%TO.C,Q1*%
X274560000Y-178912156D03*
X274560000Y-177012156D03*
X272685000Y-177962156D03*
%TD*%
D16*
%TO.C,Q16*%
X178987500Y-78500000D03*
X178987500Y-80400000D03*
X180862500Y-79450000D03*
%TD*%
D12*
%TO.C,C33*%
X274850000Y-81800000D03*
X276400000Y-81800000D03*
%TD*%
D49*
%TO.C,C52*%
X133785500Y-185135000D03*
X133785500Y-176735000D03*
%TD*%
D50*
%TO.C,U9*%
X173755000Y-152480000D03*
X172485000Y-152480000D03*
X171215000Y-152480000D03*
X169945000Y-152480000D03*
X168675000Y-152480000D03*
X167405000Y-152480000D03*
X166135000Y-152480000D03*
X164865000Y-152480000D03*
X164865000Y-161780000D03*
X166135000Y-161780000D03*
X167405000Y-161780000D03*
X168675000Y-161780000D03*
X169945000Y-161780000D03*
X171215000Y-161780000D03*
X172485000Y-161780000D03*
X173755000Y-161780000D03*
%TD*%
D16*
%TO.C,Q19*%
X238987500Y-88500000D03*
X238987500Y-90400000D03*
X240862500Y-89450000D03*
%TD*%
%TO.C,Q13*%
X257987500Y-102750000D03*
X257987500Y-104650000D03*
X259862500Y-103700000D03*
%TD*%
D18*
%TO.C,R4*%
X291705000Y-176382156D03*
X290055000Y-176382156D03*
%TD*%
D12*
%TO.C,C12*%
X183865000Y-192445000D03*
X185415000Y-192445000D03*
%TD*%
D20*
%TO.C,R66*%
X282600000Y-99800000D03*
X284250000Y-99800000D03*
%TD*%
D51*
%TO.C,U6*%
X246229300Y-202765000D03*
X246229300Y-201495000D03*
X246229300Y-200225000D03*
X246229300Y-198955000D03*
X246229300Y-197685000D03*
X246229300Y-196415000D03*
X246229300Y-195145000D03*
X246229300Y-193875000D03*
X240920700Y-193875000D03*
X240920700Y-195145000D03*
X240920700Y-196415000D03*
X240920700Y-197685000D03*
X240920700Y-198955000D03*
X240920700Y-200225000D03*
X240920700Y-201495000D03*
X240920700Y-202765000D03*
%TD*%
D12*
%TO.C,C13*%
X185390000Y-196035000D03*
X186940000Y-196035000D03*
%TD*%
D52*
%TO.C,U4*%
X246705000Y-148770000D03*
X245285000Y-148770000D03*
X243865000Y-148770000D03*
X246705000Y-150190000D03*
X245285000Y-150190000D03*
X243865000Y-150190000D03*
X246705000Y-151610000D03*
X245285000Y-151610000D03*
X243865000Y-151610000D03*
D53*
X247235000Y-147352500D03*
X246585000Y-147352500D03*
X245935000Y-147352500D03*
X245285000Y-147352500D03*
X244635000Y-147352500D03*
X243985000Y-147352500D03*
X243335000Y-147352500D03*
D54*
X242447500Y-148240000D03*
X242447500Y-148890000D03*
X242447500Y-149540000D03*
X242447500Y-150190000D03*
X242447500Y-150840000D03*
X242447500Y-151490000D03*
X242447500Y-152140000D03*
D53*
X243335000Y-153027500D03*
X243985000Y-153027500D03*
X244635000Y-153027500D03*
X245285000Y-153027500D03*
X245935000Y-153027500D03*
X246585000Y-153027500D03*
X247235000Y-153027500D03*
D54*
X248122500Y-152140000D03*
X248122500Y-151490000D03*
X248122500Y-150840000D03*
X248122500Y-150190000D03*
X248122500Y-149540000D03*
X248122500Y-148890000D03*
X248122500Y-148240000D03*
%TD*%
D22*
%TO.C,D15*%
X215175000Y-83750000D03*
X215175000Y-87050000D03*
X220075000Y-87050000D03*
X220075000Y-83750000D03*
%TD*%
D25*
%TO.C,R69*%
X171025000Y-91325000D03*
X171025000Y-89675000D03*
%TD*%
D20*
%TO.C,R30*%
X241305000Y-116590000D03*
X242955000Y-116590000D03*
%TD*%
%TO.C,R20*%
X188415000Y-190845000D03*
X190065000Y-190845000D03*
%TD*%
D22*
%TO.C,D16*%
X250175000Y-83750000D03*
X250175000Y-87050000D03*
X255075000Y-87050000D03*
X255075000Y-83750000D03*
%TD*%
D40*
%TO.C,SW2*%
X267790000Y-179912156D03*
X267790000Y-175712156D03*
%TD*%
D19*
%TO.C,C41*%
X174040000Y-148935000D03*
X174040000Y-150485000D03*
%TD*%
D25*
%TO.C,R14*%
X276930000Y-156065000D03*
X276930000Y-154415000D03*
%TD*%
%TO.C,R61*%
X255500000Y-106325000D03*
X255500000Y-104675000D03*
%TD*%
D19*
%TO.C,C6*%
X287210000Y-178422156D03*
X287210000Y-179972156D03*
%TD*%
D20*
%TO.C,R54*%
X197600000Y-99800000D03*
X199250000Y-99800000D03*
%TD*%
D49*
%TO.C,C51*%
X122760500Y-185160000D03*
X122760500Y-176760000D03*
%TD*%
D16*
%TO.C,Q10*%
X212762500Y-105850000D03*
X212762500Y-107750000D03*
X214637500Y-106800000D03*
%TD*%
D20*
%TO.C,R33*%
X266230000Y-113590000D03*
X267880000Y-113590000D03*
%TD*%
D27*
%TO.C,C23*%
X196415000Y-192445000D03*
X194865000Y-192445000D03*
%TD*%
D18*
%TO.C,R68*%
X180350000Y-82350000D03*
X178700000Y-82350000D03*
%TD*%
D11*
%TO.C,R23*%
X188490000Y-183370000D03*
X188490000Y-185020000D03*
%TD*%
D23*
%TO.C,D3*%
X138486000Y-115730500D03*
X138486000Y-112230500D03*
%TD*%
D18*
%TO.C,R18*%
X249520700Y-201410000D03*
X247870700Y-201410000D03*
%TD*%
%TO.C,R38*%
X150085500Y-163210000D03*
X148435500Y-163210000D03*
%TD*%
D28*
%TO.C,D18*%
X167830000Y-165980000D03*
X168520000Y-165980000D03*
%TD*%
D55*
%TO.C,L1*%
X153360000Y-182310000D03*
X163260000Y-182310000D03*
%TD*%
D20*
%TO.C,R21*%
X130843002Y-118230000D03*
X132493002Y-118230000D03*
%TD*%
D12*
%TO.C,C16*%
X185390000Y-198995000D03*
X186940000Y-198995000D03*
%TD*%
D20*
%TO.C,R62*%
X257600000Y-99800000D03*
X259250000Y-99800000D03*
%TD*%
%TO.C,R1*%
X212770000Y-145950000D03*
X214420000Y-145950000D03*
%TD*%
D56*
%TO.C,J2*%
X267620000Y-152305000D03*
X268720000Y-152305000D03*
X269820000Y-152305000D03*
X270920000Y-152305000D03*
X272020000Y-152305000D03*
X273120000Y-152305000D03*
X274220000Y-152305000D03*
X275320000Y-152305000D03*
X276270000Y-152305000D03*
D57*
X277220000Y-141805000D03*
D58*
X277220000Y-148005000D03*
D59*
X277220000Y-137655000D03*
D58*
X266070000Y-152305000D03*
D60*
X263720000Y-137205000D03*
%TD*%
D12*
%TO.C,C17*%
X247945700Y-196395000D03*
X249495700Y-196395000D03*
%TD*%
D25*
%TO.C,R12*%
X268170000Y-156065000D03*
X268170000Y-154415000D03*
%TD*%
D16*
%TO.C,Q12*%
X247762500Y-105850000D03*
X247762500Y-107750000D03*
X249637500Y-106800000D03*
%TD*%
D11*
%TO.C,R34*%
X284485000Y-190615000D03*
X284485000Y-192265000D03*
%TD*%
D23*
%TO.C,D2*%
X135146000Y-115730500D03*
X135146000Y-112230500D03*
%TD*%
D61*
%TO.C,C50*%
X175061462Y-184019121D03*
X178011462Y-184019121D03*
%TD*%
D11*
%TO.C,R55*%
X209600000Y-105975000D03*
X209600000Y-107625000D03*
%TD*%
D19*
%TO.C,C1*%
X215805000Y-145885000D03*
X215805000Y-147435000D03*
%TD*%
D62*
%TO.C,U11*%
X147020000Y-191485000D03*
X145750000Y-191485000D03*
X144480000Y-191485000D03*
X143210000Y-191485000D03*
X143210000Y-196635000D03*
X144480000Y-196635000D03*
X145750000Y-196635000D03*
X147020000Y-196635000D03*
%TD*%
D16*
%TO.C,Q17*%
X178987500Y-88500000D03*
X178987500Y-90400000D03*
X180862500Y-89450000D03*
%TD*%
%TO.C,Q18*%
X238987500Y-78500000D03*
X238987500Y-80400000D03*
X240862500Y-79450000D03*
%TD*%
D24*
%TO.C,C7*%
X270210000Y-173097156D03*
X270210000Y-171547156D03*
%TD*%
M02*
