M48
; DRILL file KiCad 10.0.3 date 2026-06-27T16:24:07
; FORMAT={-:-/ absolute / inch / decimal}
; #@! TF.CreationDate,2026-06-27T16:24:07+10:00
; #@! TF.GenerationSoftware,Kicad,Pcbnew,10.0.3
; #@! TF.FileFunction,Plated,1,2,PTH
FMAT,2
INCH
; #@! TA.AperFunction,Plated,PTH,ViaDrill
T1C0.0118
; #@! TA.AperFunction,Plated,PTH,ComponentDrill
T2C0.0118
; #@! TA.AperFunction,Plated,PTH,ViaDrill
T3C0.0157
; #@! TA.AperFunction,Plated,PTH,ComponentDrill
T4C0.0197
; #@! TA.AperFunction,Plated,PTH,ComponentDrill
T5C0.0276
; #@! TA.AperFunction,Plated,PTH,ComponentDrill
T6C0.0315
; #@! TA.AperFunction,Plated,PTH,ComponentDrill
T7C0.0394
; #@! TA.AperFunction,Plated,PTH,ComponentDrill
T8C0.0433
; #@! TA.AperFunction,Plated,PTH,ComponentDrill
T9C0.0591
; #@! TA.AperFunction,Plated,PTH,ComponentDrill
T10C0.0630
; #@! TA.AperFunction,Plated,PTH,ComponentDrill
T11C0.0669
; #@! TA.AperFunction,Plated,PTH,ComponentDrill
T12C0.1260
%
G90
G05
T1
X4.8969Y-4.6575
X4.9374Y-4.6232
X4.9862Y-6.563
X5.0614Y-3.4099
X5.1675Y-4.3051
X5.1732Y-3.2205
X5.3829Y-3.4291
X5.7091Y-6.7362
X6.0443Y-3.4272
X6.1575Y-3.2205
X6.1852Y-4.2658
X6.3342Y-3.2288
X6.565Y-6.7061
X6.565Y-6.7573
X6.6407Y-5.9193
X6.8327Y-6.6156
X6.8533Y-6.5787
X7.1427Y-3.6362
X7.1431Y-3.2421
X7.1431Y-3.3869
X7.1431Y-3.4724
X7.1923Y-4.5709
X7.3258Y-4.1358
X7.3878Y-6.4902
X7.3878Y-6.8622
X7.4094Y-7.5591
X7.4131Y-6.2168
X7.4134Y-6.8806
X7.4236Y-3.4099
X7.439Y-6.4902
X7.439Y-6.8622
X7.5276Y-7.5217
X7.5354Y-3.2205
X7.5788Y-7.363
X7.5965Y-7.2677
X7.6122Y-7.363
X7.6152Y-4.885
X7.7972Y-7.2421
X7.8366Y-7.2421
X7.8622Y-7.8134
X7.87Y-7.2421
X7.8957Y-3.3149
X7.8957Y-7.8134
X7.9318Y-7.8134
X7.9626Y-7.8799
X7.9626Y-7.9133
X8.0894Y-7.6995
X8.1237Y-7.7322
X8.31Y-4.1358
X8.4065Y-3.4272
X8.4439Y-6.001
X8.4478Y-5.8425
X8.5089Y-6.2933
X8.5197Y-3.2205
X8.6181Y-6.4311
X8.6191Y-6.9734
X8.6201Y-6.0437
X8.6201Y-6.0937
X8.6508Y-6.2434
X8.6516Y-6.4291
X8.6516Y-6.9744
X8.6831Y-6.9744
X8.6834Y-6.4511
X8.6964Y-3.2288
X8.8371Y-7.1617
X9.061Y-7.8209
X9.0885Y-5.6977
X9.1104Y-6.4074
X9.1329Y-4.061
X9.1949Y-5.7913
X9.1969Y-5.8937
X9.1993Y-7.0969
X9.2349Y-7.1617
X9.2982Y-6.998
X9.3002Y-7.1617
X9.3041Y-6.8425
X9.314Y-5.9941
X9.314Y-6.0433
X9.314Y-6.0925
X9.315Y-5.9488
X9.315Y-6.2933
X9.3199Y-5.7933
X9.3199Y-5.8248
X9.3336Y-7.1617
X9.338Y-7.342
X9.3514Y-6.811
X9.3514Y-6.8425
X9.3514Y-6.878
X9.3736Y-7.3732
X9.3799Y-5.7933
X9.3829Y-7.1617
X9.3839Y-5.6988
X9.4048Y-5.8126
X9.4213Y-7.1617
X9.4235Y-4.7678
X9.4838Y-7.3515
X9.5026Y-3.2417
X9.5026Y-3.3869
X9.503Y-3.4724
X9.5041Y-3.637
X9.5506Y-5.7002
X9.5687Y-4.1638
X9.5691Y-4.2658
X9.5723Y-6.6905
X9.5729Y-6.3819
X9.5797Y-6.998
X9.6323Y-7.3515
X9.6502Y-7.1932
X9.6836Y-7.1932
X9.7077Y-5.7657
X9.7163Y-7.194
X9.7707Y-5.7638
X9.7858Y-3.4099
X9.8022Y-5.7647
X9.8228Y-7.8799
X9.8435Y-4.3406
X10.0511Y-4.2469
X10.1123Y-5.7127
X10.1594Y-6.5411
X10.1641Y-5.9688
X10.1801Y-6.8777
X10.188Y-6.5568
X10.2116Y-6.0163
X10.2579Y-3.3149
X10.3221Y-4.2245
X10.3234Y-4.1487
X10.3964Y-6.1673
X10.4016Y-6.5407
X10.435Y-6.7732
X10.4536Y-6.6288
X10.4594Y-6.2871
X10.4998Y-6.3031
X10.5797Y-5.9469
X10.622Y-5.9488
X10.7096Y-5.9449
X10.7904Y-6.7989
X10.7963Y-5.9409
X10.8484Y-7.3035
X10.877Y-5.9429
X10.9047Y-6.9594
X10.9047Y-6.9909
X10.9318Y-6.173
X10.9518Y-6.6021
X10.9648Y-6.9594
X10.9648Y-6.9909
X10.9794Y-6.3582
X10.9803Y-7.0472
X10.9843Y-6.2953
X11.0394Y-6.3189
X11.0503Y-6.9562
X11.0586Y-3.2288
X11.0726Y-6.9785
X11.1108Y-7.8335
X11.125Y-7.3031
X11.125Y-7.3571
X11.125Y-7.548
X11.126Y-7.611
X11.1262Y-7.7803
X11.1413Y-6.0882
X11.1565Y-7.3031
X11.1565Y-7.3571
X11.1565Y-7.548
X11.1573Y-7.6622
X11.1575Y-7.611
X11.2002Y-7.5695
X11.214Y-6.6764
X11.2149Y-6.739
X11.2244Y-7.2913
X11.2455Y-6.6764
X11.2464Y-6.739
X11.3429Y-6.3929
X11.3445Y-7.5261
X11.3668Y-7.5038
T2
X8.7947Y-5.9201
X8.7947Y-5.9752
X8.8222Y-5.8925
X8.8222Y-5.9476
X8.8222Y-6.0028
X8.8488Y-5.9201
X8.8488Y-5.9752
X8.8774Y-5.8925
X8.8774Y-5.9476
X8.8774Y-6.0028
X8.9049Y-5.9201
X8.9049Y-5.9752
T3
X4.5866Y-6.8789
X4.9213Y-6.3278
X4.938Y-4.5866
X4.938Y-4.6614
X5.0528Y-4.4646
X5.0561Y-3.4665
X5.0625Y-3.2289
X5.0758Y-3.9921
X5.1215Y-4.3012
X5.1893Y-3.3209
X5.2136Y-3.9921
X5.2136Y-4.2047
X5.3179Y-3.4272
X5.3207Y-4.3438
X5.453Y-4.3438
X5.5211Y-4.421
X5.5768Y-7.872
X5.6058Y-4.2377
X5.6388Y-7.4695
X5.7152Y-4.3437
X5.7853Y-4.4185
X5.7923Y-6.3661
X5.9951Y-6.124
X6.0303Y-6.7018
X6.0468Y-3.2329
X6.1545Y-4.2047
X6.2788Y-3.4865
X6.3038Y-4.4173
X6.5482Y-3.0788
X6.5482Y-3.1535
X6.5831Y-7.4059
X6.5955Y-4.5464
X6.5955Y-4.7028
X6.6781Y-4.5464
X6.6781Y-4.7087
X6.6812Y-4.817
X6.7215Y-4.3701
X6.7333Y-3.2451
X6.7333Y-3.3909
X6.7333Y-3.6388
X6.7333Y-3.7846
X6.7886Y-4.3052
X6.8435Y-4.3543
X6.893Y-7.9692
X7.0036Y-4.2382
X7.0328Y-4.6653
X7.0849Y-4.624
X7.1112Y-3.8307
X7.1171Y-7.2622
X7.1335Y-7.2126
X7.1427Y-3.1732
X7.1522Y-6.9965
X7.1752Y-6.8626
X7.1945Y-7.5169
X7.2057Y-4.3504
X7.2254Y-3.5197
X7.2293Y-3.8307
X7.2461Y-7.8898
X7.2988Y-7.677
X7.3061Y-6.874
X7.3703Y-7.4512
X7.372Y-7.5138
X7.4183Y-4.3543
X7.4247Y-3.2289
X7.4858Y-7.8741
X7.4882Y-6.876
X7.5285Y-4.2047
X7.5443Y-4.3543
X7.5547Y-7.7969
X7.5955Y-4.7324
X7.5963Y-4.8118
X7.5974Y-7.2234
X7.6515Y-4.8112
X7.7063Y-7.675
X7.7158Y-4.8525
X7.9419Y-3.4035
X7.9685Y-4.2382
X8.1703Y-4.3445
X8.2067Y-6.1161
X8.3258Y-5.8043
X8.409Y-3.2329
X8.4961Y-6.001
X8.4994Y-5.6437
X8.5089Y-4.3425
X8.5167Y-4.2047
X8.643Y-3.4845
X8.7618Y-6.2835
X8.9065Y-3.0748
X8.9065Y-3.1496
X8.9262Y-3.4095
X8.9262Y-3.4843
X9.0653Y-7.7834
X9.0955Y-3.2451
X9.0955Y-3.3909
X9.0955Y-3.6388
X9.0955Y-3.7846
X9.16Y-7.9398
X9.187Y-5.7343
X9.3226Y-5.6437
X9.4474Y-7.5915
X9.4888Y-5.9642
X9.5049Y-3.1732
X9.5157Y-5.7421
X9.5876Y-3.5197
X9.7869Y-3.2289
X9.877Y-8.0378
X9.8907Y-4.2047
X9.8986Y-3.2205
X9.9232Y-6.7143
X10.2992Y-3.3986
X10.6201Y-6.8481
X10.7293Y-6.3071
X10.753Y-5.9449
X10.7712Y-3.2329
X10.875Y-4.2047
X10.8819Y-3.2205
X10.8898Y-6.874
X10.8965Y-6.6009
X10.9754Y-5.5827
X11.0266Y-3.4272
X11.0648Y-7.5839
X11.1866Y-7.8288
X11.1929Y-6.1299
X11.201Y-7.4335
X11.2903Y-3.502
X11.3189Y-6.1693
X11.3889Y-7.4761
X11.4094Y-6.9016
X11.4144Y-7.5433
X11.436Y-3.5
X11.5748Y-6.6102
X11.6299Y-6.2283
T4
X4.5711Y-7.9783
X4.5719Y-5.5394
X4.573Y-5.1063
X4.5738Y-2.6673
X4.5987Y-7.9115
X4.5987Y-8.0452
X4.5995Y-5.4726
X4.5995Y-5.6062
X4.6007Y-5.0395
X4.6007Y-5.1731
X4.6015Y-2.6005
X4.6015Y-2.7341
X4.6656Y-7.8839
X4.6656Y-8.0728
X4.6663Y-5.4449
X4.6663Y-5.6339
X4.6675Y-5.0118
X4.6675Y-5.2008
X4.6683Y-2.5728
X4.6683Y-2.7618
X4.7324Y-7.9115
X4.7324Y-8.0452
X4.7332Y-5.4726
X4.7332Y-5.6062
X4.7343Y-5.0395
X4.7343Y-5.1731
X4.7351Y-2.6005
X4.7351Y-2.7341
X4.76Y-7.9783
X4.7608Y-5.5394
X4.762Y-5.1063
X4.7628Y-2.6673
X11.3868Y-7.9783
X11.3876Y-5.5394
X11.3888Y-5.1063
X11.3896Y-2.6673
X11.4145Y-7.9115
X11.4145Y-8.0452
X11.4153Y-5.4726
X11.4153Y-5.6062
X11.4165Y-5.0395
X11.4165Y-5.1731
X11.4172Y-2.6005
X11.4172Y-2.7341
X11.4813Y-7.8839
X11.4813Y-8.0728
X11.4821Y-5.4449
X11.4821Y-5.6339
X11.4833Y-5.0118
X11.4833Y-5.2008
X11.4841Y-2.5728
X11.4841Y-2.7618
X11.5481Y-7.9115
X11.5481Y-8.0452
X11.5489Y-5.4726
X11.5489Y-5.6062
X11.5501Y-5.0395
X11.5501Y-5.1731
X11.5509Y-2.6005
X11.5509Y-2.7341
X11.5758Y-7.9783
X11.5766Y-5.5394
X11.5778Y-5.1063
X11.5785Y-2.6673
T5
X11.0478Y-7.6366
X11.0478Y-7.8059
X11.2368Y-7.6366
X11.2368Y-7.8059
T6
X6.7919Y-4.4297
X6.7919Y-4.7297
X6.8322Y-3.1654
X6.8322Y-3.5591
X6.8919Y-4.4297
X6.8919Y-4.7297
X6.9572Y-3.1654
X6.9572Y-3.5591
X6.9763Y-7.6423
X6.9763Y-7.7423
X6.9763Y-7.8423
X6.9919Y-4.4297
X6.9919Y-4.7297
X7.0919Y-4.4297
X7.0919Y-4.7297
X7.1919Y-4.4297
X7.1919Y-4.7297
X7.2919Y-4.4297
X7.2919Y-4.7297
X7.3919Y-4.4297
X7.3919Y-4.7297
X7.4919Y-4.4297
X7.4919Y-4.7297
X9.1944Y-3.1654
X9.1944Y-3.5591
X9.3194Y-3.1654
X9.3194Y-3.5591
T7
X7.2811Y-8.0352
X7.3795Y-8.0352
X7.6118Y-8.0352
X7.7102Y-8.0352
X7.9632Y-7.3996
X7.9632Y-7.4996
X7.9652Y-4.5276
X7.9652Y-4.6276
X8.0632Y-7.3996
X8.0632Y-7.4996
X8.0652Y-4.5276
X8.0652Y-4.6276
X8.1632Y-7.3996
X8.1632Y-7.4996
X8.1652Y-4.5276
X8.1652Y-4.6276
X8.2632Y-7.3996
X8.2632Y-7.4996
X8.2652Y-4.5276
X8.2652Y-4.6276
X8.3632Y-7.3996
X8.3632Y-7.4996
X8.3652Y-4.5276
X8.3652Y-4.6276
X8.4632Y-7.3996
X8.4632Y-7.4996
X8.4652Y-4.5276
X8.4652Y-4.6276
X8.5632Y-7.3996
X8.5632Y-7.4996
X8.5652Y-4.5276
X8.5652Y-4.6276
X8.6632Y-7.3996
X8.6632Y-7.4996
X8.6652Y-4.5276
X8.6652Y-4.6276
X8.7632Y-7.3996
X8.7632Y-7.4996
X8.7652Y-4.5276
X8.7652Y-4.6276
X8.8632Y-7.3996
X8.8632Y-7.4996
X8.8652Y-4.5276
X8.8652Y-4.6276
X8.9632Y-7.3996
X8.9632Y-7.4996
X8.9652Y-4.5276
X8.9652Y-4.6276
X9.0632Y-7.3996
X9.0632Y-7.4996
X9.0652Y-4.5276
X9.0652Y-4.6276
X9.1632Y-7.3996
X9.1632Y-7.4996
X9.1652Y-4.5276
X9.1652Y-4.6276
X9.6502Y-4.4937
X9.6502Y-4.5921
X9.6502Y-4.6906
X10.1112Y-7.7419
X10.2096Y-7.7419
X10.2211Y-4.4937
X10.2211Y-4.6906
X10.6333Y-4.4925
X10.6333Y-4.5909
X10.6333Y-4.6894
X11.2041Y-4.4925
X11.2041Y-4.6894
T8
X5.3227Y-4.7453
X5.6227Y-4.7453
X6.6193Y-7.5421
X6.6193Y-7.6421
X6.6193Y-7.7421
T9
X10.6407Y-7.7213
T10
X4.904Y-6.7287
X4.9951Y-3.185
X4.9951Y-3.3622
X4.9951Y-3.5394
X5.064Y-3.0472
X5.064Y-3.6772
X5.2215Y-3.0079
X5.2215Y-3.7165
X5.3789Y-3.0472
X5.3789Y-3.6772
X5.404Y-6.7287
X5.4478Y-3.185
X5.4478Y-3.3622
X5.4478Y-3.5394
X5.9793Y-3.185
X5.9793Y-3.3622
X5.9793Y-3.5394
X6.0482Y-3.0472
X6.0482Y-3.6772
X6.2057Y-3.0079
X6.2057Y-3.7165
X6.3632Y-3.0472
X6.3632Y-3.6772
X6.4321Y-3.185
X6.4321Y-3.3622
X6.4321Y-3.5394
X7.3573Y-3.185
X7.3573Y-3.3622
X7.3573Y-3.5394
X7.4262Y-3.0472
X7.4262Y-3.6772
X7.5837Y-3.0079
X7.5837Y-3.7165
X7.7411Y-3.0472
X7.7411Y-3.6772
X7.81Y-3.185
X7.81Y-3.3622
X7.81Y-3.5394
X8.3415Y-3.185
X8.3415Y-3.3622
X8.3415Y-3.5394
X8.4104Y-3.0472
X8.4104Y-3.6772
X8.5679Y-3.0079
X8.5679Y-3.7165
X8.7254Y-3.0472
X8.7254Y-3.6772
X8.7943Y-3.185
X8.7943Y-3.3622
X8.7943Y-3.5394
X9.7195Y-3.185
X9.7195Y-3.3622
X9.7195Y-3.5394
X9.7884Y-3.0472
X9.7884Y-3.6772
X9.9459Y-3.0079
X9.9459Y-3.7165
X10.1033Y-3.0472
X10.1033Y-3.6772
X10.1722Y-3.185
X10.1722Y-3.3622
X10.1722Y-3.5394
X10.5061Y-7.3035
X10.7037Y-3.185
X10.7037Y-3.3622
X10.7037Y-3.5394
X10.7726Y-3.0472
X10.7726Y-3.6772
X10.9301Y-3.0079
X10.9301Y-3.7165
X11.0061Y-7.3035
X11.0876Y-3.0472
X11.0876Y-3.6772
X11.1565Y-3.185
X11.1565Y-3.3622
X11.1565Y-3.5394
T11
X10.5407Y-7.6213
X10.5407Y-7.8213
X10.7407Y-7.6213
X10.7407Y-7.8213
T12
X4.6656Y-7.9783
X4.6663Y-5.5394
X4.6675Y-5.1063
X4.6683Y-2.6673
X11.4813Y-7.9783
X11.4821Y-5.5394
X11.4833Y-5.1063
X11.4841Y-2.6673
T9
G00X9.9199Y-4.3717
M15
G01X9.9711Y-4.3717
M16
G05
G00X9.9199Y-4.8126
M15
G01X9.9711Y-4.8126
M16
G05
G00X10.903Y-4.3705
M15
G01X10.9541Y-4.3705
M16
G05
G00X10.903Y-4.8114
M15
G01X10.9541Y-4.8114
M16
G05
M30
